<svg width="190" height="248" viewBox="0 0 190 248" fill="none" xmlns="http://www.w3.org/2000/svg">
<g id="Group 427318994">
<path id="image 34 (Traced)" fill-rule="evenodd" clip-rule="evenodd" d="M177.83 2.78536C182.004 4.53698 185.277 7.82058 187.134 12.1173C189.532 17.6638 190 35.9186 190 123.966C190 209.667 189.493 230.357 187.269 235.504C185.767 238.981 182.486 243.213 179.977 244.911C175.942 247.644 166.203 248 95.3565 248C24.175 248 14.6829 247.65 9.77422 244.847C6.73618 243.112 3.29465 239.664 2.12526 237.183C0.675781 234.106 0 197.922 0 123.35C0 27.3517 0.372147 13.5148 3.05762 9.81081C4.73824 7.48919 8.66165 4.31732 11.7741 2.76074C16.5222 0.387995 29.8418 -0.0570142 94.4124 0.00547626C156.681 0.0660731 172.622 0.596295 177.83 2.78536ZM12.8103 4.75665C9.29434 6.37004 5.41597 9.81838 4.18979 12.4203C2.6032 15.7872 1.97052 48.4224 2.00186 125.475C2.043 225.25 2.31331 234.116 5.4297 237.837C7.29248 240.058 10.7399 242.828 13.0924 243.991C16.0325 245.445 41.8686 246.106 95.7012 246.106H174.03L180.055 241.204L186.082 236.301V125.566C186.082 53.5542 185.381 13.564 184.075 11.2045C182.97 9.21052 179.666 6.31702 176.729 4.77748C172.287 2.44639 158.63 1.96351 95.2958 1.90102C30.5469 1.83664 18.2478 2.26271 12.8103 4.75665ZM60.7216 39.7229C60.7216 43.3038 62.0889 43.4856 89.0258 43.4856C112.396 43.4856 117.624 42.98 119.009 40.5883C120.513 37.9902 121.43 37.9921 127.919 40.6148C131.899 42.2207 135.155 43.9344 135.155 44.4192C135.155 44.9059 131.629 47.0419 127.32 49.1666C120.756 52.4047 119.485 52.5638 119.485 50.1513C119.485 47.7028 115.089 47.2729 90.1031 47.2729C65.5715 47.2729 60.7216 47.7312 60.7216 50.0547C60.7216 51.9124 59.5856 52.4237 57.2938 51.5942C55.4075 50.9125 51.4724 48.964 48.5479 47.2653L43.2299 44.1749L51.9758 40.0676C60.5826 36.0246 60.7216 36.0208 60.7216 39.7229ZM115.567 66.7378C118.26 68.0387 122.005 72.0741 123.888 75.7042C125.772 79.3343 127.316 85.7368 127.316 89.9331C127.32 95.2145 128.524 98.5568 131.237 100.803C133.392 102.586 135.155 105.332 135.155 106.904C135.155 108.478 133.872 109.763 132.305 109.763C130.61 109.763 128.945 112.397 128.193 116.268C127.5 119.845 127.535 123.718 128.274 124.873C129.012 126.028 128.55 128.213 127.249 129.73C125.946 131.247 123.363 132.487 121.508 132.487C119.651 132.487 116.556 134.171 114.629 136.231C112.701 138.289 111.023 143.071 110.897 146.858L110.67 153.742L129.039 159.089C140.808 162.515 149.342 166.225 152.787 169.417C156.264 172.638 159.686 179.346 162.462 188.386C164.824 196.08 166.399 205.185 165.96 208.618L165.163 214.861L164.849 208.078C164.677 204.349 162.636 195.442 160.311 188.286C157.988 181.131 154.098 173.352 151.665 171C149.038 168.461 138.929 164.265 126.785 160.67L106.328 154.616L108.077 147.095C109.038 142.957 110.696 137.996 111.761 136.072C112.827 134.148 116.488 131.874 119.898 131.02C125.739 129.558 126.107 128.94 126.274 120.37C126.403 113.75 127.465 110.557 130.177 108.639C133.827 106.059 133.821 105.914 129.868 101.729C127.214 98.9204 125.5 93.923 124.867 87.1513C124.06 78.5125 122.873 75.9579 117.516 71.3299C111.571 66.1962 110.218 65.861 98.1223 66.5219C88.6947 67.0351 83.4453 68.3833 79.038 71.417C75.6944 73.7197 71.3479 78.8155 69.3794 82.741C67.2757 86.9392 65.7831 94.1692 65.7537 100.295C65.7126 109.197 66.6959 112.051 72.5173 119.93C76.2644 125.004 80.1506 130.243 81.1555 131.576C82.3013 133.101 82.0917 137.831 80.5913 144.313L78.2056 154.626L59.8147 159.875C47.0044 163.532 39.9901 166.637 36.6935 170.11C34.0727 172.871 30.116 181.429 27.8203 189.297C25.5423 197.108 23.3034 205.63 22.849 208.233C22.3926 210.837 22.3671 208.707 22.7902 203.499C23.2133 198.292 25.317 188.977 27.4658 182.802C29.6145 176.624 32.8387 170.004 34.6309 168.09C36.4212 166.177 46.4873 161.975 56.9961 158.754L76.1058 152.899L78.4328 143.518C80.7089 134.345 80.6227 133.968 74.5505 126.664C71.1344 122.555 67.0661 116.247 65.5108 112.646C63.9536 109.044 62.7 102.874 62.7235 98.9355C62.747 94.9967 64.3943 88.3652 66.3825 84.1991C68.3706 80.0331 72.0981 74.7631 74.6641 72.4907C77.2301 70.2164 81.8116 67.446 84.8438 66.3363C87.876 65.2247 94.9275 64.329 100.514 64.3442C106.1 64.3593 112.874 65.4368 115.567 66.7378ZM137.85 199.786C138.522 201.477 138.976 205.561 138.857 208.862C138.671 214.089 138.424 213.778 136.939 206.459C136.001 201.838 135.548 197.754 135.932 197.383C136.316 197.012 137.18 198.093 137.85 199.786ZM50.9278 204.965C50.9278 208.724 49.9896 212.358 48.8437 213.041C47.4256 213.89 47.1964 211.962 48.1248 206.999C48.8751 202.992 49.8133 199.358 50.209 198.922C50.6046 198.489 50.9278 201.208 50.9278 204.965Z" fill="#CE1717"/>
<rect id="Rectangle 1272" x="40" y="34" width="47" height="22" fill="#121212"/>
</g>
</svg>
