<svg width="190" height="248" viewBox="0 0 190 248" fill="none" xmlns="http://www.w3.org/2000/svg">
<g id="Group 427318993">
<path id="image 34 (Traced)" fill-rule="evenodd" clip-rule="evenodd" d="M12.1698 2.78536C7.99567 4.53698 4.72258 7.82058 2.86567 12.1173C0.468145 17.6638 0 35.9186 0 123.966C0 209.667 0.50732 230.357 2.73052 235.504C4.23289 238.981 7.51381 243.213 10.023 244.911C14.058 247.644 23.797 248 94.6435 248C165.825 248 175.317 247.65 180.226 244.847C183.264 243.112 186.705 239.664 187.875 237.183C189.324 234.106 190 197.922 190 123.35C190 27.3517 189.628 13.5148 186.942 9.81081C185.262 7.48919 181.338 4.31732 178.226 2.76074C173.478 0.387995 160.158 -0.0570142 95.5876 0.00547626C33.3186 0.0660731 17.3781 0.596295 12.1698 2.78536ZM177.19 4.75665C180.706 6.37004 184.584 9.81838 185.81 12.4203C187.397 15.7872 188.029 48.4224 187.998 125.475C187.957 225.25 187.687 234.116 184.57 237.837C182.708 240.058 179.26 242.828 176.908 243.991C173.968 245.445 148.131 246.106 94.2988 246.106H15.9698L9.94464 241.204L3.91753 236.301V125.566C3.91753 53.5542 4.61876 13.564 5.92526 11.2045C7.03 9.21052 10.3344 6.31702 13.2706 4.77748C17.7131 2.44639 31.3696 1.96351 94.7042 1.90102C159.453 1.83664 171.752 2.26271 177.19 4.75665ZM129.278 39.7229C129.278 43.3038 127.911 43.4856 100.974 43.4856C77.6042 43.4856 72.3763 42.98 70.9914 40.5883C69.4871 37.9902 68.5704 37.9921 62.081 40.6148C58.1008 42.2207 54.8454 43.9344 54.8454 44.4192C54.8454 44.9059 58.3711 47.0419 62.6804 49.1666C69.2442 52.4047 70.5155 52.5638 70.5155 50.1513C70.5155 47.7028 74.9109 47.2729 99.8969 47.2729C124.428 47.2729 129.278 47.7312 129.278 50.0547C129.278 51.9124 130.414 52.4237 132.706 51.5942C134.592 50.9125 138.528 48.964 141.452 47.2653L146.77 44.1749L138.024 40.0676C129.417 36.0246 129.278 36.0208 129.278 39.7229ZM74.433 66.7378C71.7397 68.0387 67.9945 72.0741 66.1122 75.7042C64.2278 79.3343 62.6843 85.7368 62.6843 89.9331C62.6804 95.2145 61.4758 98.5568 58.7629 100.803C56.6082 102.586 54.8454 105.332 54.8454 106.904C54.8454 108.478 56.1284 109.763 57.6954 109.763C59.3897 109.763 61.0546 112.397 61.8068 116.268C62.5002 119.845 62.4649 123.718 61.7265 124.873C60.988 126.028 61.4503 128.213 62.7509 129.73C64.0535 131.247 66.6371 132.487 68.4921 132.487C70.349 132.487 73.4438 134.171 75.3712 136.231C77.2987 138.289 78.9773 143.071 79.1027 146.858L79.3299 153.742L60.9606 159.089C49.1924 162.515 40.658 166.225 37.2126 169.417C33.7358 172.638 30.3138 179.346 27.5382 188.386C25.176 196.08 23.6011 205.185 24.0399 208.618L24.8371 214.861L25.1505 208.078C25.3229 204.349 27.3639 195.442 29.689 188.286C32.0121 181.131 35.9022 173.352 38.3349 171C40.9616 168.461 51.0708 164.265 63.2152 160.67L83.6725 154.616L81.9233 147.095C80.9615 142.957 79.3044 137.996 78.2389 136.072C77.1733 134.148 73.5124 131.874 70.1022 131.02C64.2611 129.558 63.8929 128.94 63.7264 120.37C63.5971 113.75 62.5355 110.557 59.8226 108.639C56.1734 106.059 56.1793 105.914 60.1321 101.729C62.7862 98.9204 64.5001 93.923 65.1328 87.1513C65.9398 78.5125 67.1268 75.9579 72.484 71.3299C78.4289 66.1962 79.7824 65.861 91.8777 66.5219C101.305 67.0351 106.555 68.3833 110.962 71.417C114.306 73.7197 118.652 78.8155 120.621 82.741C122.724 86.9392 124.217 94.1692 124.246 100.295C124.287 109.197 123.304 112.051 117.483 119.93C113.736 125.004 109.849 130.243 108.845 131.576C107.699 133.101 107.908 137.831 109.409 144.313L111.794 154.626L130.185 159.875C142.996 163.532 150.01 166.637 153.306 170.11C155.927 172.871 159.884 181.429 162.18 189.297C164.458 197.108 166.697 205.63 167.151 208.233C167.607 210.837 167.633 208.707 167.21 203.499C166.787 198.292 164.683 188.977 162.534 182.802C160.385 176.624 157.161 170.004 155.369 168.09C153.579 166.177 143.513 161.975 133.004 158.754L113.894 152.899L111.567 143.518C109.291 134.345 109.377 133.968 115.449 126.664C118.866 122.555 122.934 116.247 124.489 112.646C126.046 109.044 127.3 102.874 127.276 98.9355C127.253 94.9967 125.606 88.3652 123.618 84.1991C121.629 80.0331 117.902 74.7631 115.336 72.4907C112.77 70.2164 108.188 67.446 105.156 66.3363C102.124 65.2247 95.0725 64.329 89.4861 64.3442C83.8997 64.3593 77.1263 65.4368 74.433 66.7378ZM52.1501 199.786C51.4782 201.477 51.0238 205.561 51.1433 208.862C51.3294 214.089 51.5762 213.778 53.0609 206.459C53.9992 201.838 54.4517 197.754 54.0677 197.383C53.6838 197.012 52.82 198.093 52.1501 199.786ZM139.072 204.965C139.072 208.724 140.01 212.358 141.156 213.041C142.574 213.89 142.804 211.962 141.875 206.999C141.125 202.992 140.187 199.358 139.791 198.922C139.395 198.489 139.072 201.208 139.072 204.965Z" fill="#CE1717"/>
<rect id="Rectangle 1272" x="103" y="34" width="47" height="22" fill="#121212"/>
</g>
</svg>
