<svg width="187" height="245" viewBox="0 0 187 245" fill="none" xmlns="http://www.w3.org/2000/svg">
<g id="Group 427319002">
<path id="image 34 (Traced)" fill-rule="evenodd" clip-rule="evenodd" d="M177.225 2.61088C179.763 3.97243 182.993 7.0995 184.399 9.55701C186.439 13.1199 186.966 35.8566 186.999 121.567C187.03 203.882 186.473 230.202 184.625 233.782C183.298 236.354 179.182 239.93 175.479 241.727C169.414 244.673 161.288 244.998 93.7064 245C28.2517 245.004 17.8174 244.613 12.0131 241.946C8.35278 240.264 4.07248 236.481 2.50018 233.537C0.0567627 228.959 -0.281235 212.493 0.170746 119.551L0.699966 10.913L7.00842 5.45741L13.3169 0L92.9628 0.0654587C155.36 0.117826 173.609 0.669552 177.225 2.61088ZM11.3042 4.98424C8.30835 6.69739 4.9146 10.1031 3.76146 12.5532C2.33403 15.5867 1.66574 50.4221 1.66574 121.748C1.66574 211.511 2.08298 227.268 4.58241 231.949C6.18753 234.953 9.1718 238.278 11.2173 239.337C13.5931 240.569 43.5902 241.263 94.4018 241.263H173.872L179.562 235.752L185.255 230.242L184.725 120.568L184.198 10.8961L178.778 6.38319L173.358 1.87026H95.0547C25.4625 1.87026 16.1427 2.21625 11.3042 4.98424ZM100.689 31.8711C104.689 32.8324 111.643 35.4227 116.141 37.6258C120.638 39.8309 126.632 43.2104 129.456 45.1368C132.282 47.0632 135.789 48.1947 137.253 47.6504C139.075 46.9734 140.568 49.0363 141.99 54.1907C143.137 58.3558 143.293 61.7185 142.339 61.7185C141.391 61.7185 137.396 60.4168 133.464 58.8252C127.76 56.5173 126.894 55.5653 129.179 54.1122C131.594 52.5785 131.285 51.664 127.217 48.3162C124.561 46.1299 117.608 42.1556 111.765 39.4849C103.356 35.6396 98.3229 34.6503 87.6201 34.7382C77.4929 34.8204 71.9184 35.9258 65.4072 39.1426C60.6266 41.5048 54.7701 45.163 52.3923 47.2708C49.1299 50.1659 48.5891 51.7107 50.1884 53.5754C51.8129 55.4718 51.2469 56.4294 47.7508 57.6974C45.2437 58.6064 41.1526 59.9642 38.657 60.7179C34.8461 61.8681 34.2917 61.5352 35.186 58.6307C35.7713 56.7286 36.8259 52.8348 37.5309 49.9789C38.5701 45.7633 39.3234 45.1985 41.5409 46.9809C43.6945 48.709 45.1857 48.3462 48.5679 45.2696C50.9302 43.1207 57.6423 39.2567 63.4814 36.6814C69.3205 34.1079 78.4452 31.5793 83.757 31.0612C89.0688 30.545 96.6868 30.9079 100.689 31.8711ZM122.388 67.939C125.575 69.1472 130.485 71.6477 133.299 73.4992C136.114 75.3489 139.49 79.3737 140.804 82.4428C142.472 86.3479 142.782 92.9013 141.829 104.259C141.082 113.188 139.876 121.52 139.152 122.773C138.426 124.028 134.793 127.213 131.076 129.85C127.36 132.489 120.625 136.372 116.111 138.481C110.088 141.294 107.901 143.426 107.901 146.49C107.901 150.137 110.011 151.236 124.631 155.207C133.831 157.706 144.045 161.482 147.327 163.597C151.976 166.593 154.452 170.738 158.547 182.376C161.438 190.59 163.727 200.258 163.635 203.858C163.544 207.458 163.113 208.721 162.679 206.663C162.244 204.606 160.065 196.037 157.834 187.622C154.985 176.863 152.275 170.942 148.708 167.68C145.602 164.837 135.959 160.743 123.837 157.118C112.949 153.864 104.038 150.369 104.038 149.353C104.038 148.336 104.938 145.874 106.039 143.885C107.14 141.893 110.834 139.014 114.249 137.488C117.664 135.96 124.368 131.898 129.149 128.457C136.834 122.928 137.989 121.137 139.119 113.001C139.824 107.94 140.475 99.2976 140.568 93.7934C140.721 84.8555 140.056 83.1273 134.344 77.597C130.827 74.1912 124.426 70.4863 120.119 69.3641C115.811 68.2401 109.657 67.8305 106.445 68.4533C103.231 69.0761 98.1142 71.9095 95.0759 74.7504C92.0375 77.5914 86.6312 83.449 83.0616 87.7674C79.4921 92.0859 76.6064 97.461 76.6488 99.709C76.6913 101.959 77.5953 108.163 78.6557 113.493C79.7181 118.825 81.5646 124.959 82.7622 127.125C84.5238 130.314 84.0409 132.96 80.2145 141.053L75.4899 151.046L57.2 156.945C46.7966 160.302 37.2489 164.631 35.0566 166.988C32.9376 169.264 29.6675 175.757 27.7901 181.415C25.9106 187.072 23.7202 195.909 22.9187 201.053C21.5975 209.536 21.441 209.762 21.2228 203.488C21.0895 199.684 23.2065 189.751 25.9261 181.417C30.0191 168.869 31.9294 165.634 37.0326 162.608C40.4205 160.599 50.1479 156.887 58.6467 154.36C73.9524 149.809 74.1417 149.679 78.5282 140.37C82.1828 132.614 82.5614 130.254 80.6877 126.865C79.438 124.606 77.2592 118.071 75.8434 112.343C74.4295 106.616 73.2397 100.47 73.203 98.6879C73.1643 96.9055 75.2523 93.1182 77.8445 90.2717C80.4347 87.4252 85.4181 81.8144 88.92 77.8046C92.422 73.7947 98.0969 69.3753 101.531 67.9857C104.967 66.5961 109.762 65.5226 112.186 65.6012C114.61 65.6797 119.201 66.7308 122.388 67.939ZM135.909 200.118C136.651 204.37 136.825 208.272 136.293 208.786C135.762 209.301 134.719 206.241 133.977 201.988C133.236 197.735 133.062 193.833 133.593 193.319C134.124 192.805 135.167 195.865 135.909 200.118ZM48.3534 201.988C47.9497 206.102 47.2737 209.469 46.8545 209.469C46.4354 209.469 46.0916 206.102 46.0916 201.988C46.0916 197.873 46.7657 194.507 47.5905 194.507C48.4152 194.507 48.759 197.873 48.3534 201.988Z" fill="#CE1717"/>
<rect id="Rectangle 1272" x="31" y="12" width="61" height="56" fill="#121212"/>
</g>
</svg>
