<svg width="190" height="248" viewBox="0 0 190 248" fill="none" xmlns="http://www.w3.org/2000/svg">
<g id="Group 427318997">
<path id="image 34 (Traced)" fill-rule="evenodd" clip-rule="evenodd" d="M10.3252 3.55378C7.00163 5.50855 3.22881 9.56379 1.93981 12.565C0.193684 16.6316 -0.265407 45.8566 0.134829 127.232L0.672406 236.444L6.11092 241.689L11.5494 246.935L94.0413 247.468L176.535 248L183.267 241.507L190 235.013V126.138C190 59.9904 189.249 15.36 188.087 12.4117C187.035 9.74167 183.282 5.85673 179.749 3.77896C173.61 0.168416 169.827 0 94.8457 0C21.52 0 15.9716 0.234648 10.3252 3.55378ZM182.315 9.00556L188.038 15.1859V122.929C188.038 202.433 187.424 231.972 185.694 235.634C184.405 238.362 180.918 241.808 177.944 243.292C173.529 245.495 158.136 245.988 93.9923 245.988H15.4498L9.04207 240.467L2.63435 234.947L2.09677 127.17C1.75539 58.6828 2.27532 17.5816 3.51919 14.4214C4.59826 11.687 8.37109 7.73392 11.9045 5.63722C18.1063 1.95666 21.0825 1.84123 97.461 2.32377L176.592 2.82524L182.315 9.00556ZM97.5355 34.111C92.5385 34.9095 84.3866 37.2976 79.415 39.417C71.6732 42.721 70.1488 42.8762 68.7754 40.5089C67.5531 38.4047 66.0973 39.5892 62.662 45.4819C60.1821 49.7378 58.4634 53.4997 58.8421 53.8422C59.2207 54.1847 63.0603 53.9028 67.3746 53.214C73.3977 52.2527 75.2204 51.1059 75.2224 48.275C75.2243 45.5955 77.9141 43.5877 85.036 40.9441C90.8551 38.785 100.033 37.2503 107.598 37.1709C116.918 37.0743 123.111 38.2211 130.606 41.4343C136.258 43.8583 144.469 49.6072 148.899 54.2415C155.126 60.7586 156.445 63.2262 154.75 65.198C153.053 67.1698 153.859 68.6326 158.34 71.7095C161.518 73.8932 164.646 75.6796 165.287 75.6796C165.931 75.6796 166.457 71.9271 166.457 67.342C166.457 60.2704 165.925 59.1369 162.957 59.8863C160.594 60.4824 157.406 58.31 153.157 53.2102C149.235 48.5021 142.229 43.5215 134.585 40.0112C127.836 36.9097 118.781 33.9861 114.465 33.5168C110.149 33.0456 102.531 33.3124 97.5355 34.111ZM47.7591 67.2947C44.5219 68.9164 39.3364 72.5308 36.2366 75.3257C33.1367 78.1226 29.3835 83.1505 27.8983 86.4999C26.4131 89.8493 25.2045 95.3843 25.2163 98.8C25.2261 102.216 27.3666 109.427 29.9721 114.824C33.0857 121.273 37.2803 126.271 42.2146 129.406C46.3425 132.029 53.4546 134.745 58.0181 135.441C62.5816 136.135 67.8631 137.797 69.7544 139.129C72.8405 141.307 72.9308 142.395 70.6255 149.775C69.2149 154.296 66.89 162.876 65.4597 168.842C63.6135 176.538 63.2898 184.778 64.3473 197.227C65.1674 206.872 65.9639 210.99 66.117 206.375C66.2719 201.759 67.7787 192.818 69.468 186.505C71.1552 180.192 73.1721 172.483 73.9471 169.374C74.7495 166.159 77.4452 162.702 80.1978 161.358C83.541 159.727 84.0197 158.989 81.7458 158.97C79.9349 158.955 76.7428 161.04 74.6494 163.606C72.558 166.172 70.2547 172.559 69.5347 177.799C68.8146 183.039 67.3883 187.327 66.3681 187.327C65.3106 187.327 64.9712 183.457 65.5814 178.338C66.1699 173.395 68.4379 163.958 70.6216 157.369C72.819 150.737 74.0628 143.358 73.4075 140.84C72.6267 137.84 70.396 135.931 66.8586 135.231C63.9078 134.646 58.2221 133.335 54.2237 132.313C50.2252 131.291 44.1412 128.173 40.7019 125.381C37.2627 122.59 32.8267 116.864 30.8471 112.657C28.8655 108.453 27.245 102.456 27.245 99.3336C27.245 96.2113 28.944 90.048 31.0178 85.6389C33.6075 80.1398 37.7218 75.8272 44.1118 71.9195C49.2384 68.784 55.9462 66.218 59.0187 66.218C62.917 66.218 67.404 68.7442 73.8823 74.5896C78.9854 79.1936 85.5618 83.5422 88.4988 84.2518C92.819 85.2983 93.6254 86.3485 92.7346 89.7736C91.9754 92.6916 93.2958 95.9104 96.994 100.147C102.193 106.108 102.256 106.451 99.0894 111.62C96.637 115.626 95.8267 121.614 95.8267 135.746C95.8267 154.529 95.8326 154.548 103.398 164.783C107.563 170.417 112.491 177.888 114.349 181.383C116.427 185.288 117.857 192.722 118.059 200.66C118.289 209.673 118.87 212.328 119.978 209.444C120.851 207.169 120.971 201.133 120.243 196.029C119.515 190.924 117.761 184.111 116.347 180.887C114.932 177.664 110.178 170.402 105.782 164.749L97.7886 154.474V135.717C97.7886 119.922 98.3988 116.213 101.654 112.222L105.517 107.484L99.5838 100.363C94.9811 94.8393 93.9432 92.122 94.9517 88.2465C95.6678 85.4969 95.4951 83.1864 94.5671 83.1088C93.6411 83.0312 90.6766 82.5866 87.9789 82.1192C85.2812 81.6536 80.4254 78.3837 77.1882 74.8526C73.951 71.3216 69.3738 67.5085 67.0175 66.3788C64.6592 65.2491 60.6863 64.3313 58.1887 64.337C55.6892 64.3446 50.9963 65.6749 47.7591 67.2947ZM93.2114 192.373C92.4914 193.066 92.0323 198.389 92.1912 204.2L92.4796 214.765L93.8137 203.411C94.5475 197.167 95.0066 191.845 94.8339 191.584C94.6613 191.323 93.9295 191.679 93.2114 192.373Z" fill="#CE1717"/>
<rect id="Rectangle 1272" x="115" y="26" width="54" height="56" fill="#121212"/>
</g>
</svg>
