<svg width="187" height="245" viewBox="0 0 187 245" fill="none" xmlns="http://www.w3.org/2000/svg">
<g id="Group 427319001">
<path id="image 34 (Traced)" fill-rule="evenodd" clip-rule="evenodd" d="M9.77489 2.61088C7.23682 3.97243 4.00728 7.0995 2.6011 9.55701C0.561375 13.1199 0.0340439 35.8566 0.00120736 121.567C-0.0296976 203.882 0.526599 230.202 2.3751 233.782C3.70208 236.354 7.81826 239.93 11.5211 241.727C17.5862 244.673 25.7122 244.998 93.2936 245C158.748 245.004 169.183 244.613 174.987 241.946C178.647 240.264 182.928 236.481 184.5 233.537C186.943 228.959 187.281 212.493 186.829 119.551L186.3 10.913L179.992 5.45741L173.683 0L94.0372 0.0654587C31.6402 0.117826 13.3908 0.669552 9.77489 2.61088ZM175.696 4.98424C178.692 6.69739 182.085 10.1031 183.239 12.5532C184.666 15.5867 185.334 50.4221 185.334 121.748C185.334 211.511 184.917 227.268 182.418 231.949C180.812 234.953 177.828 238.278 175.783 239.337C173.407 240.569 143.41 241.263 92.5982 241.263H13.1281L7.43772 235.752L1.74543 230.242L2.27466 120.568L2.80199 10.8961L8.22194 6.38319L13.6419 1.87026H91.9453C161.537 1.87026 170.857 2.21625 175.696 4.98424ZM86.311 31.8711C82.3107 32.8324 75.3571 35.4227 70.8585 37.6258C66.3619 39.8309 60.3682 43.2104 57.5443 45.1368C54.7184 47.0632 51.2107 48.1947 49.7466 47.6504C47.9251 46.9734 46.432 49.0363 45.0104 54.1907C43.863 58.3558 43.7066 61.7185 44.6608 61.7185C45.6092 61.7185 49.6036 60.4168 53.5363 58.8252C59.2402 56.5173 60.1055 55.5653 57.8205 54.1122C55.4061 52.5785 55.7151 51.664 59.783 48.3162C62.4389 46.1299 69.3925 42.1556 75.2354 39.4849C83.6435 35.6396 88.6771 34.6503 99.3799 34.7382C109.507 34.8204 115.082 35.9258 121.593 39.1426C126.373 41.5048 132.23 45.163 134.608 47.2708C137.87 50.1659 138.411 51.7107 136.812 53.5754C135.187 55.4718 135.753 56.4294 139.249 57.6974C141.756 58.6064 145.847 59.9642 148.343 60.7179C152.154 61.8681 152.708 61.5352 151.814 58.6307C151.229 56.7286 150.174 52.8348 149.469 49.9789C148.43 45.7633 147.677 45.1985 145.459 46.9809C143.305 48.709 141.814 48.3462 138.432 45.2696C136.07 43.1207 129.358 39.2567 123.519 36.6814C117.68 34.1079 108.555 31.5793 103.243 31.0612C97.9312 30.545 90.3132 30.9079 86.311 31.8711ZM64.6119 67.939C61.4248 69.1472 56.5148 71.6477 53.7005 73.4992C50.8862 75.3489 47.5098 79.3737 46.1964 82.4428C44.5275 86.3479 44.2185 92.9013 45.1707 104.259C45.9182 113.188 47.1236 121.52 47.8479 122.773C48.5742 124.028 52.2074 127.213 55.9237 129.85C59.6401 132.489 66.3754 136.372 70.8894 138.481C76.912 141.294 79.0985 143.426 79.0985 146.49C79.0985 150.137 76.9893 151.236 62.3693 155.207C53.1693 157.706 42.9552 161.482 39.6735 163.597C35.0242 166.593 32.548 170.738 28.4531 182.376C25.5615 190.59 23.2726 200.258 23.3654 203.858C23.4561 207.458 23.8869 208.721 24.3215 206.663C24.7561 204.606 26.9349 196.037 29.1658 187.622C32.0149 176.863 34.7248 170.942 38.2924 167.68C41.3984 164.837 51.0407 160.743 63.1632 157.118C74.0514 153.864 82.9617 150.369 82.9617 149.353C82.9617 148.336 82.0615 145.874 80.9605 143.885C79.8596 141.893 76.1664 139.014 72.7514 137.488C69.3364 135.96 62.632 131.898 57.8514 128.457C50.1657 122.928 49.0107 121.137 47.8807 113.001C47.1757 107.94 46.5248 99.2976 46.4321 93.7934C46.2795 84.8555 46.9439 83.1273 52.6555 77.597C56.1729 74.1912 62.574 70.4863 66.8814 69.3641C71.1888 68.2401 77.3428 67.8305 80.5549 68.4533C83.7691 69.0761 88.8858 71.9095 91.9241 74.7504C94.9625 77.5914 100.369 83.449 103.938 87.7674C107.508 92.0859 110.394 97.461 110.351 99.709C110.309 101.959 109.405 108.163 108.344 113.493C107.282 118.825 105.435 124.959 104.238 127.125C102.476 130.314 102.959 132.96 106.786 141.053L111.51 151.046L129.8 156.945C140.203 160.302 149.751 164.631 151.943 166.988C154.062 169.264 157.332 175.757 159.21 181.415C161.089 187.072 163.28 195.909 164.081 201.053C165.403 209.536 165.559 209.762 165.777 203.488C165.911 199.684 163.794 189.751 161.074 181.417C156.981 168.869 155.071 165.634 149.967 162.608C146.579 160.599 136.852 156.887 128.353 154.36C113.048 149.809 112.858 149.679 108.472 140.37C104.817 132.614 104.439 130.254 106.312 126.865C107.562 124.606 109.741 118.071 111.157 112.343C112.57 106.616 113.76 100.47 113.797 98.6879C113.836 96.9055 111.748 93.1182 109.156 90.2717C106.565 87.4252 101.582 81.8144 98.08 77.8046C94.578 73.7947 88.9031 69.3753 85.4688 67.9857C82.0326 66.5961 77.2385 65.5226 74.8144 65.6012C72.3903 65.6797 67.7989 66.7308 64.6119 67.939ZM51.091 200.118C50.3492 204.37 50.1754 208.272 50.7066 208.786C51.2377 209.301 52.2808 206.241 53.0225 201.988C53.7642 197.735 53.9381 193.833 53.4069 193.319C52.8757 192.805 51.8327 195.865 51.091 200.118ZM138.647 201.988C139.05 206.102 139.726 209.469 140.145 209.469C140.565 209.469 140.908 206.102 140.908 201.988C140.908 197.873 140.234 194.507 139.41 194.507C138.585 194.507 138.241 197.873 138.647 201.988Z" fill="#CE1717"/>
<rect id="Rectangle 1272" x="100" y="12" width="54" height="56" fill="#121212"/>
</g>
</svg>
